<mxfile host="app.diagrams.net" modified="2023-12-23T11:50:23.123Z" agent="Mozilla/5.0 (Macintosh; Intel Mac OS X 10_15_7) AppleWebKit/537.36 (KHTML, like Gecko) Chrome/120.0.0.0 Safari/537.36" version="22.1.11" etag="oqJ2BsO2eRfjIePg09-5" type="github">
  <diagram name="Page-1" id="rDShm5NTkbd3QQOzpL91">
    <mxGraphModel>
      <root>
        <mxCell id="0" />
        <mxCell id="1" parent="0" />
      </root>
    </mxGraphModel>
  </diagram>
</mxfile>
